HIERARCHY
ROOT Hips
{
	OFFSET 0.000000 0.000000 0.000000
	CHANNELS 6 Xposition Yposition Zposition Zrotation Yrotation Xrotation 
	JOINT LHipJoint
	{
		OFFSET 0.000000 0.000000 0.000000
		CHANNELS 3 Zrotation Yrotation Xrotation
		JOINT LeftUpLeg
		{
			OFFSET 1.363060 -1.794630 0.839290
			CHANNELS 3 Zrotation Yrotation Xrotation
			JOINT LeftLeg
			{
				OFFSET 2.448110 -6.726130 0.000000
				CHANNELS 3 Zrotation Yrotation Xrotation
				JOINT LeftFoot
				{
					OFFSET 2.562200 -7.039590 0.000000
					CHANNELS 3 Zrotation Yrotation Xrotation
					JOINT LeftToeBase
					{
						OFFSET 0.157640 -0.433110 2.322550
						CHANNELS 3 Zrotation Yrotation Xrotation
						End Site
						{
							OFFSET 0.000000 0.000000 0.000000
						}
					}
				}
			}
		}
	}
	JOINT RHipJoint
	{
		OFFSET 0.000000 0.000000 0.000000
		CHANNELS 3 Zrotation Yrotation Xrotation
		JOINT RightUpLeg
		{
			OFFSET -1.305520 -1.794630 0.839290
			CHANNELS 3 Zrotation Yrotation Xrotation
			JOINT RightLeg
			{
				OFFSET -2.542530 -6.985550 0.000000
				CHANNELS 3 Zrotation Yrotation Xrotation
				JOINT RightFoot
				{
					OFFSET -2.568260 -7.056230 0.000000
					CHANNELS 3 Zrotation Yrotation Xrotation
					JOINT RightToeBase
					{
						OFFSET -0.164730 -0.452590 2.363150
						CHANNELS 3 Zrotation Yrotation Xrotation
						End Site
						{
							OFFSET 0.000000 0.000000 0.000000
						}
					}
				}
			}
		}
	}
	JOINT LowerBack
	{
		OFFSET 0.000000 0.000000 0.000000
		CHANNELS 3 Zrotation Yrotation Xrotation
		JOINT Spine
		{
			OFFSET 0.028270 2.035590 -0.193380
			CHANNELS 3 Zrotation Yrotation Xrotation
			JOINT Spine1
			{
				OFFSET 0.056720 2.048850 -0.042750
				CHANNELS 3 Zrotation Yrotation Xrotation
				JOINT Neck
				{
					OFFSET 0.000000 0.000000 0.000000
					CHANNELS 3 Zrotation Yrotation Xrotation
					JOINT Neck1
					{
						OFFSET -0.054170 1.746240 0.172020
						CHANNELS 3 Zrotation Yrotation Xrotation
						JOINT Head
						{
							OFFSET 0.104070 1.761360 -0.123970
							CHANNELS 3 Zrotation Yrotation Xrotation
							End Site
							{
								OFFSET 0.000000 0.000000 0.000000
							}
						}
					}
				}
				JOINT LeftShoulder
				{
					OFFSET 0.000000 0.000000 0.000000
					CHANNELS 3 Zrotation Yrotation Xrotation
					JOINT LeftArm
					{
						OFFSET 3.362410 1.200890 -0.311210
						CHANNELS 3 Zrotation Yrotation Xrotation
						JOINT LeftForeArm
						{
							OFFSET 4.983000 -0.000000 -0.000000
							CHANNELS 3 Zrotation Yrotation Xrotation
							JOINT LeftHand
							{
								OFFSET 3.483560 -0.000000 -0.000000
								CHANNELS 3 Zrotation Yrotation Xrotation
								JOINT LeftFingerBase
								{
									OFFSET 0.000000 0.000000 0.000000
									CHANNELS 3 Zrotation Yrotation Xrotation
									JOINT LeftHandIndex1
									{
										OFFSET 0.715260 -0.000000 -0.000000
										CHANNELS 3 Zrotation Yrotation Xrotation
										End Site
										{
											OFFSET 0.000000 0.000000 0.000000
										}
									}
								}
								JOINT LThumb
								{
									OFFSET 0.000000 0.000000 0.000000
									CHANNELS 3 Zrotation Yrotation Xrotation
									End Site
									{
										OFFSET 0.000000 0.000000 0.000000
									}
								}
							}
						}
					}
				}
				JOINT RightShoulder
				{
					OFFSET 0.000000 0.000000 0.000000
					CHANNELS 3 Zrotation Yrotation Xrotation
					JOINT RightArm
					{
						OFFSET -3.136600 1.374050 -0.404650
						CHANNELS 3 Zrotation Yrotation Xrotation
						JOINT RightForeArm
						{
							OFFSET -5.241900 -0.000000 -0.000000
							CHANNELS 3 Zrotation Yrotation Xrotation
							JOINT RightHand
							{
								OFFSET -3.444170 -0.000000 -0.000000
								CHANNELS 3 Zrotation Yrotation Xrotation
								JOINT RightFingerBase
								{
									OFFSET 0.000000 0.000000 0.000000
									CHANNELS 3 Zrotation Yrotation Xrotation
									JOINT RightHandIndex1
									{
										OFFSET -0.622530 -0.000000 -0.000000
										CHANNELS 3 Zrotation Yrotation Xrotation
										End Site
										{
											OFFSET 0.000000 0.000000 0.000000
										}
									}
								}
								JOINT RThumb
								{
									OFFSET 0.000000 0.000000 0.000000
									CHANNELS 3 Zrotation Yrotation Xrotation
									End Site
									{
										OFFSET 0.000000 0.000000 0.000000
									}
								}
							}
						}
					}
				}
			}
		}
	}
}
MOTION
Frames: 4
Frame Time: 0.008333
18.258295 19.250615 16.764734 -175.333150 -81.046674 171.645352 34.184087 13.734294 6.036160 -67.815293 -22.104751 -3.286883 14.797834 7.886278 46.197326 -2.479417 -19.485317 -52.404549 0.770000 5.603100 15.637000 -30.982966 -13.533399 13.876727 62.916507 33.076749 -17.149135 -14.653052 -12.843374 66.283708 1.078277 14.089151 -52.676918 -0.006600 -0.526200 1.446000 -6.232111 0.609510 -8.527043 12.653191 -6.514356 65.336199 -2.782840 0.728677 -27.157277 -9.557423 0.205223 -41.812620 -0.530892 2.073535 61.546058 2.891400 -0.857000 16.224700 5.316682 4.390809 2.085977 -101.199621 6.768308 18.644494 40.037123 -53.100639 -7.780902 3.188105 10.743224 -11.021844 22.593900 30.995432 6.560200 -7.125000 0.000000 0.000000 -10.982200 51.594800 -1.801900 -9.182395 -6.199479 0.282285 97.286497 0.746520 22.764284 -37.038639 50.502375 -7.503308 -3.570938 -1.332863 -17.264109 -25.359665 10.860245 -4.511200 7.125000 0.000000 0.000000 3.916200 -17.633700 2.551800 
18.227494 19.232516 16.751874 -174.791849 -81.402861 171.132625 34.088359 13.774352 6.066899 -67.560065 -22.264282 -3.517360 14.695596 7.984997 46.783778 -2.780999 -19.989467 -52.230616 0.787300 5.664400 15.813800 -31.278617 -13.608350 13.837873 63.382638 33.127496 -16.886719 -14.436845 -12.532935 65.223872 1.452756 15.144775 -52.567630 -0.002400 -0.317600 0.872800 -7.097507 0.446185 -8.526052 14.035709 -7.308398 64.852537 -2.946432 0.520768 -27.114450 -9.590033 0.258541 -41.538249 -1.081746 2.404008 61.523880 2.797000 -0.863500 16.148100 5.135140 4.366110 2.113987 -101.434588 6.772900 18.373678 39.949730 -53.053348 -7.735798 3.126505 10.682984 -10.611719 22.060775 30.865445 6.370100 -7.125000 0.000000 0.000000 -11.318800 51.398700 -1.803400 -9.404263 -6.147956 0.336066 97.330082 0.634093 22.268395 -36.880148 50.270565 -7.380041 -3.573501 -1.279891 -17.076070 -25.248245 11.086106 -4.559300 7.125000 0.000000 0.000000 3.991500 -17.445300 2.617700 
18.190579 19.220052 16.742268 -175.199536 -81.758444 171.582336 34.081339 13.766552 5.905867 -67.632346 -22.103164 -3.318647 14.597141 7.986889 46.798587 -3.137643 -20.601335 -51.875182 1.052300 6.523000 18.309600 -31.579778 -13.607903 13.978214 63.644437 33.533554 -16.827795 -14.206845 -12.239583 64.289905 1.840829 16.258050 -52.521309 -0.001800 0.271000 -0.744500 -7.803122 0.354251 -8.628821 15.083049 -7.848066 64.452635 -3.088002 0.422183 -27.101863 -9.716006 0.225390 -41.196372 -1.324539 2.465326 61.554861 2.734900 -0.921500 16.049700 4.996955 4.331659 2.134853 -101.597687 6.779060 18.362683 39.864899 -52.991777 -7.701750 3.131758 10.667784 -10.244979 21.852277 30.921151 6.324000 -7.125000 0.000000 0.000000 -11.476600 51.411400 -1.832700 -9.566755 -6.074157 0.394590 97.443547 0.384054 21.466077 -36.802409 50.071555 -7.260919 -3.523978 -1.211232 -16.546588 -24.899932 11.251358 -4.545500 7.125000 0.000000 0.000000 4.192000 -17.325400 2.760900 
18.153189 19.212828 16.736552 -177.223969 -81.945539 173.619667 33.944059 13.725170 5.816121 -67.813934 -21.963922 -3.187541 14.532066 8.078202 46.845035 -3.095792 -20.563322 -51.822665 1.096800 6.655100 18.697600 -31.944122 -13.502122 14.220484 63.773807 34.269808 -16.815197 -14.108300 -12.014916 63.418411 1.948464 16.571483 -52.524546 -0.003400 0.376700 -1.035000 -7.448357 0.345382 -8.986876 14.058773 -7.387325 64.758783 -2.859664 0.562494 -27.163380 -9.602342 0.130091 -41.224741 -0.837858 2.026824 61.811011 2.749300 -0.996700 16.102100 5.143813 4.382458 2.106613 -101.416522 6.612124 18.688927 39.897514 -53.017920 -7.723246 3.179069 10.665989 -10.293077 22.066860 30.919992 6.390800 -7.125000 0.000000 0.000000 -11.326300 51.455200 -1.820400 -9.397146 -6.032749 0.398889 97.818813 0.258229 20.577771 -36.646064 49.922233 -7.140231 -3.471654 -1.180986 -16.124797 -24.562196 11.200448 -4.461100 7.125000 0.000000 0.000000 4.384600 -17.405200 2.880800 
